{
	"asset":{
		"generator":"Khronos glTF Blender I/O v4.5.48",
		"version":"2.0"
	},
	"scene":0,
	"scenes":[
		{
			"extras":{
				"gscatter":{
					"proxy_settings":{
						"proxy_method":0
					},
					"scatter_surface":{}
				},
				"M3":{},
				"uuid":"766d9e0b-b4a0-497d-a374-30acc42c3f56",
				"assets reported":{},
				"GodotPipelineProps":{
					"global_UI":1,
					"collision_UI":1,
					"path_UI":0,
					"mesh_data":0,
					"export_UI":1,
					"string_setter_UI":1,
					"save_path":"D:\\GITHUB\\ludum-dare-58\\assets\\Roof_v1.gltf",
					"counter":23,
					"body_types":0,
					"col_types":0,
					"discard_mesh":0,
					"display_wire":0,
					"collision_margin":1.0
				}
			},
			"name":"Scene",
			"nodes":[
				0,
				1
			]
		}
	],
	"nodes":[
		{
			"extras":{
				"M3":{}
			},
			"mesh":0,
			"name":"ROOF",
			"rotation":[
				0,
				0,
				0.18032829463481903,
				0.9836065173149109
			],
			"translation":[
				-2.804533004760742,
				4.950384616851807,
				1.8869571685791016
			]
		},
		{
			"extras":{
				"M3":{}
			},
			"name":"Cube.004",
			"rotation":[
				0,
				0,
				-1,
				0
			],
			"scale":[
				-0.03855247050523758,
				-1,
				-0.11636769026517868
			],
			"translation":[
				1.7238317728042603,
				1.0216809511184692,
				1.6779505014419556
			]
		}
	],
	"materials":[
		{
			"doubleSided":true,
			"name":"2nd floor",
			"pbrMetallicRoughness":{
				"baseColorFactor":[
					0.007209365256130695,
					0.21913909912109375,
					0.3583194315433502,
					1
				],
				"metallicFactor":0.25925925374031067
			}
		}
	],
	"meshes":[
		{
			"name":"Plane.003",
			"primitives":[
				{
					"attributes":{
						"POSITION":0,
						"NORMAL":1,
						"TEXCOORD_0":2
					},
					"indices":3,
					"material":0
				}
			]
		}
	],
	"accessors":[
		{
			"bufferView":0,
			"componentType":5126,
			"count":12,
			"max":[
				11.650089263916016,
				1.4105331897735596,
				3.878885507583618
			],
			"min":[
				-8.272600173950195,
				-2.9643733501434326,
				-10.029766082763672
			],
			"type":"VEC3"
		},
		{
			"bufferView":1,
			"componentType":5126,
			"count":12,
			"type":"VEC3"
		},
		{
			"bufferView":2,
			"componentType":5126,
			"count":12,
			"type":"VEC2"
		},
		{
			"bufferView":3,
			"componentType":5123,
			"count":18,
			"type":"SCALAR"
		}
	],
	"bufferViews":[
		{
			"buffer":0,
			"byteLength":144,
			"byteOffset":0,
			"target":34962
		},
		{
			"buffer":0,
			"byteLength":144,
			"byteOffset":144,
			"target":34962
		},
		{
			"buffer":0,
			"byteLength":96,
			"byteOffset":288,
			"target":34962
		},
		{
			"buffer":0,
			"byteLength":36,
			"byteOffset":384,
			"target":34963
		}
	],
	"buffers":[
		{
			"byteLength":420,
			"uri":"Roof_v1.bin"
		}
	]
}
