{
	"asset":{
		"generator":"Khronos glTF Blender I/O v4.5.48",
		"version":"2.0"
	},
	"scene":0,
	"scenes":[
		{
			"extras":{
				"gscatter":{
					"proxy_settings":{
						"proxy_method":0
					},
					"scatter_surface":{}
				},
				"M3":{},
				"uuid":"766d9e0b-b4a0-497d-a374-30acc42c3f56",
				"assets reported":{},
				"GodotPipelineProps":{
					"global_UI":0,
					"collision_UI":1,
					"path_UI":0,
					"mesh_data":0,
					"export_UI":1,
					"string_setter_UI":0,
					"save_path":"D:\\GITHUB\\ludum-dare-58\\assets\\walls_floor_v1.gltf",
					"counter":21,
					"body_types":0,
					"col_types":0,
					"discard_mesh":0,
					"display_wire":0,
					"collision_margin":1.0
				}
			},
			"name":"Scene",
			"nodes":[
				0,
				1
			]
		}
	],
	"nodes":[
		{
			"extras":{
				"M3":{},
				"center_x":0.28763341903686523,
				"center_z":0.5289156436920166,
				"center_y":3.11179780960083,
				"collision":"box",
				"size_x":"17.7037",
				"size_z":"15.2278",
				"size_y":"6.3996"
			},
			"mesh":0,
			"name":"Walls_floor"
		},
		{
			"extras":{
				"M3":{}
			},
			"name":"Cube.004",
			"rotation":[
				0,
				0,
				-1,
				0
			],
			"scale":[
				-0.03855247050523758,
				-1,
				-0.11636769026517868
			],
			"translation":[
				1.7238317728042603,
				1.0216809511184692,
				1.6779505014419556
			]
		}
	],
	"materials":[
		{
			"doubleSided":true,
			"name":"1st_floor",
			"pbrMetallicRoughness":{
				"baseColorFactor":[
					0.9617738723754883,
					1,
					0.8723463416099548,
					1
				],
				"metallicFactor":0,
				"roughnessFactor":0.5
			}
		},
		{
			"doubleSided":true,
			"name":"2nd floor",
			"pbrMetallicRoughness":{
				"baseColorFactor":[
					0.007209365256130695,
					0.21913909912109375,
					0.3583194315433502,
					1
				],
				"metallicFactor":0.25925925374031067
			}
		},
		{
			"doubleSided":true,
			"name":"walls",
			"pbrMetallicRoughness":{
				"baseColorFactor":[
					0.34012141823768616,
					0.746417224407196,
					0.8001194596290588,
					1
				],
				"metallicFactor":0,
				"roughnessFactor":0.5
			}
		}
	],
	"meshes":[
		{
			"name":"Plane",
			"primitives":[
				{
					"attributes":{
						"POSITION":0,
						"NORMAL":1,
						"TEXCOORD_0":2
					},
					"indices":3,
					"material":0
				},
				{
					"attributes":{
						"POSITION":4,
						"NORMAL":5,
						"TEXCOORD_0":6
					},
					"indices":7,
					"material":1
				},
				{
					"attributes":{
						"POSITION":8,
						"NORMAL":9,
						"TEXCOORD_0":10
					},
					"indices":11,
					"material":2
				}
			]
		}
	],
	"accessors":[
		{
			"bufferView":0,
			"componentType":5126,
			"count":273,
			"max":[
				9.139467239379883,
				6.311605453491211,
				5.721932411193848
			],
			"min":[
				-8.564200401306152,
				0,
				-8.14280891418457
			],
			"type":"VEC3"
		},
		{
			"bufferView":1,
			"componentType":5126,
			"count":273,
			"type":"VEC3"
		},
		{
			"bufferView":2,
			"componentType":5126,
			"count":273,
			"type":"VEC2"
		},
		{
			"bufferView":3,
			"componentType":5123,
			"count":720,
			"type":"SCALAR"
		},
		{
			"bufferView":4,
			"componentType":5126,
			"count":78,
			"max":[
				9.014277458190918,
				6.311605453491211,
				5.584906578063965
			],
			"min":[
				-8.455365180969238,
				3.3345248699188232,
				-8.041354179382324
			],
			"type":"VEC3"
		},
		{
			"bufferView":5,
			"componentType":5126,
			"count":78,
			"type":"VEC3"
		},
		{
			"bufferView":6,
			"componentType":5126,
			"count":78,
			"type":"VEC2"
		},
		{
			"bufferView":7,
			"componentType":5123,
			"count":156,
			"type":"SCALAR"
		},
		{
			"bufferView":8,
			"componentType":5126,
			"count":96,
			"max":[
				9.015238761901855,
				3.3345251083374023,
				5.598602771759033
			],
			"min":[
				-8.455365180969238,
				0,
				-8.041354179382324
			],
			"type":"VEC3"
		},
		{
			"bufferView":9,
			"componentType":5126,
			"count":96,
			"type":"VEC3"
		},
		{
			"bufferView":10,
			"componentType":5126,
			"count":96,
			"type":"VEC2"
		},
		{
			"bufferView":11,
			"componentType":5123,
			"count":192,
			"type":"SCALAR"
		}
	],
	"bufferViews":[
		{
			"buffer":0,
			"byteLength":3276,
			"byteOffset":0,
			"target":34962
		},
		{
			"buffer":0,
			"byteLength":3276,
			"byteOffset":3276,
			"target":34962
		},
		{
			"buffer":0,
			"byteLength":2184,
			"byteOffset":6552,
			"target":34962
		},
		{
			"buffer":0,
			"byteLength":1440,
			"byteOffset":8736,
			"target":34963
		},
		{
			"buffer":0,
			"byteLength":936,
			"byteOffset":10176,
			"target":34962
		},
		{
			"buffer":0,
			"byteLength":936,
			"byteOffset":11112,
			"target":34962
		},
		{
			"buffer":0,
			"byteLength":624,
			"byteOffset":12048,
			"target":34962
		},
		{
			"buffer":0,
			"byteLength":312,
			"byteOffset":12672,
			"target":34963
		},
		{
			"buffer":0,
			"byteLength":1152,
			"byteOffset":12984,
			"target":34962
		},
		{
			"buffer":0,
			"byteLength":1152,
			"byteOffset":14136,
			"target":34962
		},
		{
			"buffer":0,
			"byteLength":768,
			"byteOffset":15288,
			"target":34962
		},
		{
			"buffer":0,
			"byteLength":384,
			"byteOffset":16056,
			"target":34963
		}
	],
	"buffers":[
		{
			"byteLength":16440,
			"uri":"walls_floor_v1.bin"
		}
	]
}
